<?xml version="1.0" encoding="utf-8"?><svg xmlns="http://www.w3.org/2000/svg" xmlns:xlink="http://www.w3.org/1999/xlink"><symbol viewBox="0 0 24 24" id="Facebook" xmlns="http://www.w3.org/2000/svg">
    <g clip-path="url(#bclip0_2351_35)">
        <path d="M23.9981 11.9991C23.9981 5.37216 18.626 0 11.9991 0C5.37216 0 0 5.37216 0 11.9991C0 17.9882 4.38789 22.9522 10.1242 23.8524V15.4676H7.07758V11.9991H10.1242V9.35553C10.1242 6.34826 11.9156 4.68714 14.6564 4.68714C15.9692 4.68714 17.3424 4.92149 17.3424 4.92149V7.87439H15.8294C14.3388 7.87439 13.8739 8.79933 13.8739 9.74824V11.9991H17.2018L16.6698 15.4676H13.8739V23.8524C19.6103 22.9522 23.9981 17.9882 23.9981 11.9991Z"/>
    </g>
    <defs>
        <clipPath id="bclip0_2351_35">
            <rect width="24" height="24"/>
        </clipPath>
    </defs>
</symbol><symbol viewBox="0 0 24 24" id="Instagram" xmlns="http://www.w3.org/2000/svg">
    <g clip-path="url(#cclip0_2351_39)">
        <path d="M12 0C8.74 0 8.333 0.015 7.053 0.072C5.775 0.132 4.905 0.333 4.14 0.63C3.351 0.936 2.681 1.347 2.014 2.014C1.347 2.681 0.935 3.35 0.63 4.14C0.333 4.905 0.131 5.775 0.072 7.053C0.012 8.333 0 8.74 0 12C0 15.26 0.015 15.667 0.072 16.947C0.132 18.224 0.333 19.095 0.63 19.86C0.936 20.648 1.347 21.319 2.014 21.986C2.681 22.652 3.35 23.065 4.14 23.37C4.906 23.666 5.776 23.869 7.053 23.928C8.333 23.988 8.74 24 12 24C15.26 24 15.667 23.985 16.947 23.928C18.224 23.868 19.095 23.666 19.86 23.37C20.648 23.064 21.319 22.652 21.986 21.986C22.652 21.319 23.065 20.651 23.37 19.86C23.666 19.095 23.869 18.224 23.928 16.947C23.988 15.667 24 15.26 24 12C24 8.74 23.985 8.333 23.928 7.053C23.868 5.776 23.666 4.904 23.37 4.14C23.064 3.351 22.652 2.681 21.986 2.014C21.319 1.347 20.651 0.935 19.86 0.63C19.095 0.333 18.224 0.131 16.947 0.072C15.667 0.012 15.26 0 12 0ZM12 2.16C15.203 2.16 15.585 2.176 16.85 2.231C18.02 2.286 18.655 2.48 19.077 2.646C19.639 2.863 20.037 3.123 20.459 3.542C20.878 3.962 21.138 4.361 21.355 4.923C21.519 5.345 21.715 5.98 21.768 7.15C21.825 8.416 21.838 8.796 21.838 12C21.838 15.204 21.823 15.585 21.764 16.85C21.703 18.02 21.508 18.655 21.343 19.077C21.119 19.639 20.864 20.037 20.444 20.459C20.025 20.878 19.62 21.138 19.064 21.355C18.644 21.519 17.999 21.715 16.829 21.768C15.555 21.825 15.18 21.838 11.97 21.838C8.759 21.838 8.384 21.823 7.111 21.764C5.94 21.703 5.295 21.508 4.875 21.343C4.306 21.119 3.915 20.864 3.496 20.444C3.075 20.025 2.806 19.62 2.596 19.064C2.431 18.644 2.237 17.999 2.176 16.829C2.131 15.569 2.115 15.18 2.115 11.985C2.115 8.789 2.131 8.399 2.176 7.124C2.237 5.954 2.431 5.31 2.596 4.89C2.806 4.32 3.075 3.93 3.496 3.509C3.915 3.09 4.306 2.82 4.875 2.611C5.295 2.445 5.926 2.25 7.096 2.19C8.371 2.145 8.746 2.13 11.955 2.13L12 2.16ZM12 5.838C8.595 5.838 5.838 8.598 5.838 12C5.838 15.405 8.598 18.162 12 18.162C15.405 18.162 18.162 15.402 18.162 12C18.162 8.595 15.402 5.838 12 5.838ZM12 16C9.79 16 8 14.21 8 12C8 9.79 9.79 8 12 8C14.21 8 16 9.79 16 12C16 14.21 14.21 16 12 16ZM19.846 5.595C19.846 6.39 19.2 7.035 18.406 7.035C17.611 7.035 16.966 6.389 16.966 5.595C16.966 4.801 17.612 4.156 18.406 4.156C19.199 4.155 19.846 4.801 19.846 5.595Z"/>
    </g>
    <defs>
        <clipPath id="cclip0_2351_39">
            <rect width="24" height="24"/>
        </clipPath>
    </defs>
</symbol><symbol viewBox="0 0 42 19" id="arrow-down" xmlns="http://www.w3.org/2000/svg">
    <path fill-rule="evenodd" clip-rule="evenodd" d="M21.0006 15.079L3.10897 0.765703C2.46208 0.248189 1.51814 0.35307 1.00063 0.999963C0.483113 1.64686 0.587995 2.5908 1.23489 3.10831L21.0006 18.9209L40.7664 3.10831C41.4133 2.5908 41.5182 1.64686 41.0006 0.999964C40.4831 0.35307 39.5392 0.248188 38.8923 0.765703L21.0006 15.079Z"/>
</symbol><symbol viewBox="0 0 49 49" id="interest" xmlns="http://www.w3.org/2000/svg">
    <path d="M12.9946 37.4144L16.452 39.5L36.0438 11.9866L32.7401 9.5L12.9946 37.4144ZM8.5 17.6417C8.5 21.8128 11.6885 24.7406 15.8758 24.7406C20.063 24.7406 23.2131 21.8128 23.2131 17.6417C23.2131 13.4305 20.063 10.5027 15.8758 10.5027C11.6885 10.5027 8.5 13.4305 8.5 17.6417ZM12.8409 17.6417C12.8409 15.6765 14.2623 14.393 15.8758 14.393C17.4892 14.393 18.8721 15.6765 18.8721 17.6417C18.8721 19.6471 17.5276 20.9305 15.8758 20.9305C14.3007 20.9305 12.8409 19.6471 12.8409 17.6417ZM25.7869 31.7193C25.7869 35.8904 28.9754 38.8583 33.1627 38.8583C37.3115 38.8583 40.5 35.8904 40.5 31.7193C40.5 27.508 37.3115 24.6203 33.1627 24.6203C28.9754 24.6203 25.7869 27.508 25.7869 31.7193ZM30.1278 31.7193C30.1278 29.7139 31.5492 28.4305 33.1627 28.4305C34.7377 28.4305 36.1591 29.7139 36.1591 31.7193C36.1591 33.6845 34.7761 34.9679 33.1627 34.9679C31.5876 34.9679 30.1278 33.6845 30.1278 31.7193Z"/>
</symbol><symbol viewBox="0 0 34 32" id="logo" xmlns="http://www.w3.org/2000/svg">
    <circle cx="8" cy="8" r="8"/>
    <circle cx="8" cy="8" r="8" transform="matrix(-1 0 0 1 34 16)"/>
    <rect opacity="0.4" x="18" width="14" height="14"/>
    <rect opacity="0.4" width="14" height="14" transform="matrix(-1 0 0 1 16 18)"/>
</symbol><symbol viewBox="0 0 49 49" id="persent" xmlns="http://www.w3.org/2000/svg">
    <path d="M12.9946 37.4144L16.452 39.5L36.0438 11.9866L32.7401 9.5L12.9946 37.4144ZM8.5 17.6417C8.5 21.8128 11.6885 24.7406 15.8758 24.7406C20.063 24.7406 23.2131 21.8128 23.2131 17.6417C23.2131 13.4305 20.063 10.5027 15.8758 10.5027C11.6885 10.5027 8.5 13.4305 8.5 17.6417ZM12.8409 17.6417C12.8409 15.6765 14.2623 14.393 15.8758 14.393C17.4892 14.393 18.8721 15.6765 18.8721 17.6417C18.8721 19.6471 17.5276 20.9305 15.8758 20.9305C14.3007 20.9305 12.8409 19.6471 12.8409 17.6417ZM25.7869 31.7193C25.7869 35.8904 28.9754 38.8583 33.1627 38.8583C37.3115 38.8583 40.5 35.8904 40.5 31.7193C40.5 27.508 37.3115 24.6203 33.1627 24.6203C28.9754 24.6203 25.7869 27.508 25.7869 31.7193ZM30.1278 31.7193C30.1278 29.7139 31.5492 28.4305 33.1627 28.4305C34.7377 28.4305 36.1591 29.7139 36.1591 31.7193C36.1591 33.6845 34.7761 34.9679 33.1627 34.9679C31.5876 34.9679 30.1278 33.6845 30.1278 31.7193Z"/>
</symbol><symbol viewBox="0 0 24 24" id="twitter" xmlns="http://www.w3.org/2000/svg">
    <g clip-path="url(#gclip0_2351_43)">
        <path d="M23.954 4.56909C23.069 4.95809 22.124 5.22309 21.129 5.34409C22.143 4.73309 22.923 3.77009 23.292 2.62109C22.341 3.17609 21.287 3.58009 20.165 3.80509C19.269 2.84609 17.992 2.24609 16.574 2.24609C13.857 2.24609 11.654 4.44909 11.654 7.16309C11.654 7.55309 11.699 7.92809 11.781 8.28709C7.691 8.09409 4.066 6.13009 1.64 3.16109C1.213 3.88309 0.974 4.72209 0.974 5.63609C0.974 7.34609 1.844 8.84909 3.162 9.73209C2.355 9.70609 1.596 9.48409 0.934 9.11609V9.17709C0.934 11.5621 2.627 13.5511 4.88 14.0041C4.467 14.1151 4.031 14.1751 3.584 14.1751C3.27 14.1751 2.969 14.1451 2.668 14.0891C3.299 16.0421 5.113 17.4661 7.272 17.5061C5.592 18.8251 3.463 19.6111 1.17 19.6111C0.78 19.6111 0.391 19.5881 0 19.5441C2.189 20.9381 4.768 21.7531 7.557 21.7531C16.611 21.7531 21.556 14.2571 21.556 7.76709C21.556 7.55809 21.556 7.34709 21.541 7.13709C22.502 6.44809 23.341 5.57709 24.001 4.58909L23.954 4.56909Z"/>
    </g>
    <defs>
        <clipPath id="gclip0_2351_43">
            <rect width="24" height="24"/>
        </clipPath>
    </defs>
</symbol><symbol viewBox="0 0 24 24" id="vk" xmlns="http://www.w3.org/2000/svg">
    <path d="M23.057 19.3021H20.4367C19.4451 19.3021 19.1386 18.5133 17.3566 16.7073C15.8046 15.2048 15.1179 15.002 14.7363 15.002C14.2014 15.002 14.0482 15.1552 14.0482 15.893V18.2594C14.0482 18.8964 13.8453 19.278 12.1656 19.278C9.39198 19.278 6.3119 17.5983 4.14984 14.4671C0.892471 9.88756 0 6.45139 0 5.73922C0 5.35759 0.153253 5.0015 0.890969 5.0015H3.51129C4.17238 5.0015 4.4278 5.3065 4.68322 6.01868C5.97986 9.75985 8.14342 13.0428 9.03439 13.0428C9.36494 13.0428 9.51819 12.8895 9.51819 12.0511V8.18074C9.41602 6.39881 8.47397 6.24706 8.47397 5.61151C8.47397 5.305 8.72939 5 9.13506 5H13.2579C13.8183 5 14.0211 5.305 14.0211 5.96609V11.1842C14.0211 11.7431 14.2765 11.9475 14.4283 11.9475C14.7588 11.9475 15.0398 11.7431 15.6498 11.1331C17.5339 9.02063 18.8816 5.76326 18.8816 5.76326C19.0604 5.38163 19.3654 5.02554 20.028 5.02554H22.6483C23.4371 5.02554 23.6159 5.43121 23.4371 5.99163C23.1066 7.51965 19.9003 12.0481 19.9003 12.0481C19.6208 12.5064 19.5187 12.7092 19.9003 13.2201C20.1798 13.6017 21.0963 14.3905 21.7078 15.1027C22.8271 16.3753 23.6911 17.4435 23.9209 18.1827C24.1764 18.919 23.7932 19.3006 23.0555 19.3006L23.057 19.3021Z"/>
</symbol></svg>