<svg width="49" height="49" viewBox="0 0 49 49" fill="none" xmlns="http://www.w3.org/2000/svg">
<path d="M12.9946 37.4144L16.452 39.5L36.0438 11.9866L32.7401 9.5L12.9946 37.4144ZM8.5 17.6417C8.5 21.8128 11.6885 24.7406 15.8758 24.7406C20.063 24.7406 23.2131 21.8128 23.2131 17.6417C23.2131 13.4305 20.063 10.5027 15.8758 10.5027C11.6885 10.5027 8.5 13.4305 8.5 17.6417ZM12.8409 17.6417C12.8409 15.6765 14.2623 14.393 15.8758 14.393C17.4892 14.393 18.8721 15.6765 18.8721 17.6417C18.8721 19.6471 17.5276 20.9305 15.8758 20.9305C14.3007 20.9305 12.8409 19.6471 12.8409 17.6417ZM25.7869 31.7193C25.7869 35.8904 28.9754 38.8583 33.1627 38.8583C37.3115 38.8583 40.5 35.8904 40.5 31.7193C40.5 27.508 37.3115 24.6203 33.1627 24.6203C28.9754 24.6203 25.7869 27.508 25.7869 31.7193ZM30.1278 31.7193C30.1278 29.7139 31.5492 28.4305 33.1627 28.4305C34.7377 28.4305 36.1591 29.7139 36.1591 31.7193C36.1591 33.6845 34.7761 34.9679 33.1627 34.9679C31.5876 34.9679 30.1278 33.6845 30.1278 31.7193Z" fill="#00BDF8"/>
</svg>
